# xmcd
#
# Track frame offsets:
# 150
# 84392
# 194063
# 237522
# 281228
#
# Disc length: 3911 seconds
#
# Revision: 0
# Processed by: cddbd v1.5.2PL0 Copyright (c) Steve Scherf et al.
# Submitted via: Audion 3.0.2 (http://www.panic.com/audion/)
#
DISCID=480f4505
DTITLE=Pt. Shivnath Mishra and Deobrat Mishra - Raga Malkaus
DYEAR=1900
DGENRE=
TTITLE0=Raga Malkaus
TTITLE1=Raga Malkaus
TTITLE2=Mood of Dance
TTITLE3=Mood of Joy
TTITLE4=Bhajan of Shiva
EXTD=
EXTT0=
EXTT1=
EXTT2=
EXTT3=
EXTT4=
PLAYORDER=
